<?xml version="1.0" standalone="no"?>
<svg version="1.0" xmlns="http://www.w3.org/2000/svg"
 width="720.000000pt" height="600.000000pt" viewBox="0 0 720.000000 600.000000"
 preserveAspectRatio="xMidYMid meet">
<metadata>
Created by potrace 1.16, written by Peter Selinger 2001-2019
</metadata>
<g transform="translate(0.000000,600.000000) scale(0.100000,-0.100000)"
fill="#000000" stroke="none">
<path d="M3542 5702 c-163 -823 -317 -1284 -542 -1624 -357 -541 -893 -791
-2260 -1051 -69 -13 -118 -27 -110 -30 8 -3 143 -31 300 -62 988 -195 1502
-400 1841 -735 154 -152 259 -304 368 -530 152 -318 259 -681 392 -1341 33
-167 63 -306 64 -308 5 -4 10 18 30 134 112 629 273 1199 435 1531 182 375
458 654 827 838 317 158 754 288 1385 412 164 33 298 61 298 64 0 4 -57 16
-127 29 -256 46 -567 114 -788 173 -451 119 -739 236 -990 402 -169 112 -351
294 -464 466 -226 342 -379 798 -538 1607 -32 161 -60 293 -63 293 -3 0 -29
-121 -58 -268z"/>
</g>
</svg>
